<?xml version="1.0" encoding="utf-8"?>
<!-- Generator: Adobe Illustrator 16.0.0, SVG Export Plug-In . SVG Version: 6.00 Build 0)  -->
<!DOCTYPE svg PUBLIC "-//W3C//DTD SVG 1.1//EN" "http://www.w3.org/Graphics/SVG/1.1/DTD/svg11.dtd">
<svg version="1.1" id="Layer_1" xmlns="http://www.w3.org/2000/svg" xmlns:xlink="http://www.w3.org/1999/xlink" x="0px" y="0px"
	 width="512px" height="512px" viewBox="0 0 512 512" enable-background="new 0 0 512 512" xml:space="preserve">
<g id="Layer_1_1_" display="none">
	<g display="inline">
		<g>
			<defs>
				<rect id="SVGID_1_" width="512" height="512"/>
			</defs>
			<clipPath id="SVGID_2_">
				<use xlink:href="#SVGID_1_"  overflow="visible"/>
			</clipPath>
			<g clip-path="url(#SVGID_2_)">
				<rect x="439" opacity="0.4" fill="#FF5050" enable-background="new    " width="73" height="512"/>
				<rect opacity="0.4" fill="#FF5050" enable-background="new    " width="73" height="512"/>
				<rect x="73" opacity="0.1" fill="#FF5050" enable-background="new    " width="73" height="512"/>
				<rect y="73" opacity="0.1" fill="#FF5050" enable-background="new    " width="512" height="73"/>
				<rect x="366" opacity="0.1" fill="#FF5050" enable-background="new    " width="73" height="512"/>
				<rect y="366" opacity="0.1" fill="#FF5050" enable-background="new    " width="512" height="73"/>
				<rect x="-0.5" opacity="0.4" fill="#FF5050" enable-background="new    " width="512" height="73"/>
				<rect y="439" opacity="0.4" fill="#FF5050" enable-background="new    " width="512" height="73"/>
				<path fill="none" stroke="#FF4D4D" stroke-width="0.25" d="M73,0v512"/>
				<path fill="none" stroke="#FF4D4D" stroke-width="0.25" d="M146,0v512"/>
				<path fill="none" stroke="#FF4D4D" stroke-width="0.25" d="M219,0v512"/>
				<path fill="none" stroke="#FF4D4D" stroke-width="0.25" d="M292,0v512"/>
				<path fill="none" stroke="#FF4D4D" stroke-width="0.25" d="M366,0v512"/>
				<path fill="none" stroke="#FF4D4D" stroke-width="0.25" d="M439,0v512"/>
				<path fill="none" stroke="#FF4D4D" stroke-width="0.25" d="M512,73H0"/>
				<path fill="none" stroke="#FF4D4D" stroke-width="0.25" d="M512,146H0"/>
				<path fill="none" stroke="#FF4D4D" stroke-width="0.25" d="M512,219H0"/>
				<path fill="none" stroke="#FF4D4D" stroke-width="0.25" d="M512,292H0"/>
				<path fill="none" stroke="#FF4D4D" stroke-width="0.25" d="M512,366H0"/>
				<path fill="none" stroke="#FF4D4D" stroke-width="0.25" d="M512,439H0"/>
			</g>
		</g>
	</g>
</g>
<g>
	<path fill="#4285F4" d="M256,350.607L99.865,223.472L256,99.865V350.607z"/>
	<path fill="#356AC3" d="M256,350.607l156.135-127.135L256,99.865V350.607z"/>
	<circle fill="#A0C3FF" cx="256" cy="321.056" r="91.078"/>
	<path fill="#76A7FA" d="M173.686,282.022c14.619-30.771,45.982-52.045,82.314-52.045s67.695,21.274,82.314,52.045H173.686z"/>
</g>
</svg>
